 http://www.imdb.com/title/tt1924429/



An art auctioneer who has become mixed up with a group of criminals partners with a hypnotherapist in order to recover a lost painting. 



Director:
 Danny Boyle 

Writers:
 Joe Ahearne, John Hodge 

Stars:
 James McAvoy, Vincent Cassel, Rosario Dawson

Genres:
  Crime |  Drama |  Mystery |  Thriller 

Country:
 UK 

Language:
 English 




Format                                   : AVI
Format/Info                              : Audio Video Interleave
Format profile                           : OpenDML
Format settings                          : rec
File size                                : 712 MiB
Duration                                 : 1h 35mn
Overall bit rate                         : 1 040 Kbps
Writing application                      : AVI-Mux GUI 1.17.8.3, Feb 16 201019:42:50

Video
ID                                       : 0
Format                                   : MPEG-4 Visual
Format profile                           : Advanced Simple@L5
Format settings, BVOP                    : 1
Format settings, QPel                    : No
Format settings, GMC                     : No warppoints
Format settings, Matrix                  : Default (H.263)
Muxing mode                              : Packed bitstream
Codec ID                                 : XVID
Codec ID/Hint                            : XviD
Duration                                 : 1h 35mn
Bit rate                                 : 843 Kbps
Width                                    : 636 pixels
Height                                   : 226 pixels
Display aspect ratio                     : 2.814
Frame rate                               : 25.000 fps
Color space                              : YUV
Chroma subsampling                       : 4:2:0
Bit depth                                : 8 bits
Scan type                                : Progressive
Compression mode                         : Lossy
Bits/(Pixel*Frame)                       : 0.235
Stream size                              : 577 MiB (81%)
Writing library                          : XviD 64

Audio
ID                                       : 1
Format                                   : AC-3
Format/Info                              : Audio Coding 3
Mode extension                           : CM (complete main)
Format settings, Endianness              : Big
Codec ID                                 : 2000
Duration                                 : 1h 35mn
Bit rate mode                            : Constant
Bit rate                                 : 192 Kbps
Channel(s)                               : 2 channels
Channel positions                        : Front: L R
Sampling rate                            : 48.0 KHz
Bit depth                                : 16 bits
Compression mode                         : Lossy
Stream size                              : 131 MiB (18%)
Alignment                                : Aligned on interleaves
Interleave, duration                     : 64 ms (1.60 video frames)
Interleave, preload duration             : 192 ms
Title                                    : Trance 2013-AUDIO





    	http://addpix.net/viewer.php?file=74504952684806583081.jpg
    	http://addpix.net/viewer.php?file=18578332641351833636.jpg
    	http://addpix.net/viewer.php?file=56472566747923364283.jpg
    	http://addpix.net/viewer.php?file=24915507118524030649.jpg
    	http://addpix.net/viewer.php?file=93174338778551238624.jpg